<?xml version="1.0" encoding="utf-8" standalone="no"?>
<svg width="515" height="440" viewBox="0 0 515 440" fill="none" xmlns="http://www.w3.org/2000/svg">
  <g clip-path="url(#clip0_7_272)">
    <path d="M82.262 314.032H436.291L514.439 389.853H0L82.262 314.032Z" fill="#3043A0" />
    <path d="M110.202 314.032L45.612 377.79" stroke="#272F88" stroke-miterlimit="10" />
    <path d="M412.345 320.102L470.785 377.79" stroke="#272F88" stroke-miterlimit="10" />
    <path d="M96.997 327.066H419.239" stroke="#272F88" stroke-miterlimit="10" />
    <path d="M55.077 368.447H460.639" stroke="#272F88" stroke-miterlimit="10" />
    <path d="M76.037 347.756H440.359" stroke="#272F88" stroke-miterlimit="10" />
    <path d="M258.198 377.79V314.069" stroke="#272F88" stroke-miterlimit="10" />
    <path d="M193.809 314.032L154.426 377.79" stroke="#272F88" stroke-miterlimit="10" />
    <path d="M322.588 314.032L361.971 377.79" stroke="#272F88" stroke-miterlimit="10" />
    <path d="M436.29 121.653H86.374V314.973H436.29V121.653Z" fill="#3043A0" />
    <path d="M428.062 130.788H95.32V309.973H428.062V130.788Z" fill="#282F89" />
    <path d="M244.238 148.783H219.953C214.43 148.783 209.953 153.26 209.953 158.783V160.925C209.953 166.448 214.43 170.925 219.953 170.925H244.238C249.761 170.925 254.238 166.448 254.238 160.925V158.783C254.238 153.26 249.761 148.783 244.238 148.783Z" fill="#20256C" />
    <path d="M221.222 168.925C226.341 168.925 230.491 164.864 230.491 159.854C230.491 154.844 226.341 150.783 221.222 150.783C216.103 150.783 211.953 154.844 211.953 159.854C211.953 164.864 216.103 168.925 221.222 168.925Z" fill="#2B2BB2" />
    <path d="M331.834 148.783H307.549C302.026 148.783 297.549 153.26 297.549 158.783V160.925C297.549 166.448 302.026 170.925 307.549 170.925H331.834C337.357 170.925 341.834 166.448 341.834 160.925V158.783C341.834 153.26 337.357 148.783 331.834 148.783Z" fill="#20256C" />
    <path d="M311.006 180.871H219.953C214.43 180.871 209.953 185.348 209.953 190.871V193.013C209.953 198.536 214.43 203.013 219.953 203.013H311.006C316.529 203.013 321.006 198.536 321.006 193.013V190.871C321.006 185.348 316.529 180.871 311.006 180.871Z" fill="#20256C" />
    <path d="M299.321 191.943H215.368" stroke="#3C57D7" stroke-miterlimit="10" />
    <path d="M264.5 200.861C269.494 200.861 273.543 196.868 273.543 191.942C273.543 187.016 269.494 183.023 264.5 183.023C259.506 183.023 255.457 187.016 255.457 191.942C255.457 196.868 259.506 200.861 264.5 200.861Z" fill="#2B2BB2" />
    <path d="M285.424 149.414H262.224V170.294H285.424V149.414Z" fill="#20256C" />
    <path d="M270.563 158.219L276.346 163.434L290.346 150.004" stroke="#2B2BB2" stroke-width="6" stroke-linecap="round" stroke-linejoin="round" />
    <path d="M131.081 177.493C139.974 183.051 151.77 180.218 157.428 171.165C163.086 162.112 160.464 150.267 151.57 144.709C142.677 139.151 130.881 141.984 125.223 151.037C119.565 160.09 122.187 171.934 131.081 177.493Z" stroke="#0357FF" stroke-miterlimit="10" />
    <path d="M171.745 108.976L164.388 120.747" stroke="#0357FF" stroke-miterlimit="10" />
    <path d="M200.932 142.01L187.552 145.223" stroke="#0357FF" stroke-miterlimit="10" />
    <path d="M134.025 100.193L136.999 113.628" stroke="#0357FF" stroke-miterlimit="10" />
    <path d="M127.431 240.831C156.58 240.831 180.21 217.201 180.21 188.052C180.21 158.903 156.58 135.273 127.431 135.273C98.2819 135.273 74.652 158.903 74.652 188.052C74.652 217.201 98.2819 240.831 127.431 240.831Z" fill="#00B5DC" />
    <path d="M127.431 204.124C136.307 204.124 143.503 196.928 143.503 188.052C143.503 179.176 136.307 171.98 127.431 171.98C118.555 171.98 111.359 179.176 111.359 188.052C111.359 196.928 118.555 204.124 127.431 204.124Z" fill="#E5F5F9" />
    <path d="M131.787 192.971C131.175 193.58 130.449 194.063 129.651 194.392C128.852 194.72 127.997 194.889 127.134 194.887C126.27 194.885 125.415 194.713 124.618 194.381C123.821 194.049 123.097 193.563 122.488 192.951C121.879 192.339 121.396 191.613 121.067 190.815C120.738 190.016 120.57 189.161 120.572 188.297C120.574 187.434 120.746 186.579 121.078 185.782C121.41 184.985 121.896 184.261 122.508 183.652C125.081 181.089 153.857 162.268 153.857 162.268C153.857 162.268 134.361 190.409 131.787 192.971Z" fill="#3D57D8" />
    <path d="M102.219 141.583L105.036 146.776" stroke="#0357FF" stroke-miterlimit="10" />
    <path d="M82.364 160.418L87.391 163.5" stroke="#0357FF" stroke-miterlimit="10" />
    <path d="M74.585 186.651L80.479 186.807" stroke="#0357FF" stroke-miterlimit="10" />
    <path d="M180.277 189.454L174.377 189.288" stroke="#0357FF" stroke-miterlimit="10" />
    <path d="M173.901 162.84L168.708 165.657" stroke="#0357FF" stroke-miterlimit="10" />
    <path d="M155.064 142.985L151.982 148.012" stroke="#0357FF" stroke-miterlimit="10" />
    <path d="M128.833 135.206L128.677 141.1" stroke="#0357FF" stroke-miterlimit="10" />
    <path d="M127.431 189.698C128.34 189.698 129.077 188.961 129.077 188.052C129.077 187.143 128.34 186.406 127.431 186.406C126.522 186.406 125.785 187.143 125.785 188.052C125.785 188.961 126.522 189.698 127.431 189.698Z" fill="#2B2BB8" />
    <path d="M127.478 128.189C138.297 128.081 148.938 130.946 158.241 136.469C167.545 141.993 175.153 149.965 180.238 159.515" stroke="#0357FF" stroke-miterlimit="10" />
    <path d="M57.379 327.56L76.273 273.968C81.155 260.119 91.493 253.999 100.057 260.974C101.948 262.561 103.565 264.447 104.844 266.559L108.189 271.912C117.254 286.422 131.997 282.324 137.889 263.657L149.071 228.248C154.965 209.581 169.708 205.483 178.771 219.992C187.285 233.617 201.001 230.964 207.52 214.431L211.142 205.244C219.297 184.565 237.611 186.718 243.949 209.101L255.037 248.259C259.762 264.942 271.824 271.372 281.359 262.29L286.059 257.812C286.511 257.381 286.969 256.985 287.434 256.623C295.902 250.023 305.961 255.997 310.879 269.382L332.443 328.067L57.379 327.56Z" fill="#2B2BB2" />
    <path d="M332.446 328.068L313.713 296.801C308.872 288.721 298.553 285.126 289.967 289.164C288.21 289.991 286.592 291.083 285.167 292.402L281.807 295.51C279.675 297.477 277.123 298.932 274.345 299.764C271.566 300.596 268.634 300.783 265.772 300.311C262.91 299.839 260.194 298.721 257.83 297.041C255.465 295.361 253.515 293.163 252.128 290.616L241.052 269.96C239.665 267.413 237.715 265.216 235.351 263.536C232.986 261.856 230.27 260.737 227.408 260.265C224.546 259.794 221.615 259.981 218.836 260.813C216.058 261.644 213.506 263.099 211.374 265.066C209.355 266.927 206.958 268.33 204.348 269.18C201.737 270.03 198.974 270.307 196.246 269.991C193.519 269.676 190.891 268.776 188.544 267.352C186.196 265.929 184.183 264.015 182.642 261.743L179.047 256.382C177.183 253.628 174.631 251.41 171.644 249.948C168.657 248.487 165.34 247.832 162.022 248.049C158.704 248.267 155.5 249.349 152.729 251.188C149.959 253.027 147.718 255.559 146.229 258.532L135.022 281.301C133.869 283.607 132.26 285.656 130.292 287.322C128.324 288.988 126.038 290.237 123.573 290.994C121.108 291.751 118.515 292 115.951 291.725C113.387 291.45 110.906 290.658 108.657 289.396L103.97 286.774C103.519 286.522 103.062 286.289 102.599 286.074C94.151 282.205 84.074 285.655 79.115 293.437L57.379 327.561L332.446 328.068Z" fill="#5677E9" />
    <path d="M332.529 283.385L82.802 282.877" stroke="#0357FF" stroke-width="1.195" stroke-miterlimit="10" />
    <path d="M332.614 238.702L82.887 238.194" stroke="#0357FF" stroke-width="1.195" stroke-miterlimit="10" />
    <path d="M11.534 269.876H87.466V345.107H11.534V269.876Z" fill="#7CB8FF" />
    <path d="M24.75 356.492V258.492" stroke="#0357FF" stroke-miterlimit="10" />
    <path d="M49.5 356.492V258.492" stroke="#0357FF" stroke-miterlimit="10" />
    <path d="M74.25 356.492V258.492" stroke="#0357FF" stroke-miterlimit="10" />
    <path d="M99 331.992H0" stroke="#0357FF" stroke-miterlimit="10" />
    <path d="M99 307.492H0" stroke="#0357FF" stroke-miterlimit="10" />
    <path d="M99 282.992H0" stroke="#0357FF" stroke-miterlimit="10" />
    <path d="M49.279 321.065C56.9966 321.065 63.253 314.89 63.253 307.273C63.253 299.656 56.9966 293.481 49.279 293.481C41.5614 293.481 35.305 299.656 35.305 307.273C35.305 314.89 41.5614 321.065 49.279 321.065Z" fill="#0357FF" />
    <path d="M329.684 102.354C348.085 95.2907 357.277 74.6472 350.213 56.2459C343.149 37.8446 322.506 28.6536 304.105 35.7172C285.703 42.7808 276.512 63.4242 283.576 81.8255C290.639 100.227 311.283 109.418 329.684 102.354Z" fill="#F2F2F2" />
    <path d="M314.99 69.9656C314.114 70.095 313.244 70.221 312.371 70.3561C311.687 70.4674 310.997 70.5404 310.338 70.7134C309.593 70.9056 308.913 71.2906 308.365 71.8296C307.811 72.3706 307.403 73.0434 307.18 73.7848C306.957 74.5263 306.926 75.3122 307.09 76.0689C307.254 76.8257 307.607 77.5285 308.116 78.1117C308.625 78.6948 309.274 79.1391 310.002 79.4031C310.73 79.667 311.513 79.7419 312.278 79.6208C313.042 79.4996 313.764 79.1864 314.374 78.7104C314.985 78.2344 315.465 77.6112 315.769 76.8992C316.073 76.1872 316.191 75.4096 316.113 74.6394C316.067 74.2907 316.021 73.9411 315.967 73.5943L315.964 73.5878C315.912 73.2417 315.852 72.8971 315.805 72.5478L315.812 72.5453C315.697 71.8075 315.588 71.0672 315.472 70.3289C315.419 69.9827 315.319 69.9087 314.989 69.9637L314.99 69.9656ZM338.009 46.1846C337.694 45.6758 337.351 45.1764 336.987 44.6862C336.95 44.6346 336.903 44.5914 336.848 44.5593C336.793 44.5273 336.732 44.5071 336.668 44.5002C336.604 44.5208 336.545 44.555 336.495 44.6004C336.445 44.6459 336.405 44.7015 336.379 44.7635C336.183 45.2306 336.011 45.7189 335.827 46.1962C335.69 46.5284 335.554 46.8593 335.407 47.1802C334.919 48.2999 334.332 49.3742 333.654 50.3906C333.355 50.8323 333.03 51.2599 332.682 51.6816C331.116 53.5042 329.188 54.9822 327.022 56.0225C326.587 56.2376 326.149 56.4455 325.703 56.6358C325.644 56.6567 325.582 56.6649 325.519 56.6598C325.457 56.6547 325.396 56.6365 325.342 56.6064C325.298 56.5752 325.328 56.4051 325.328 56.2905C325.342 56.2507 325.36 56.2119 325.379 56.1742C326.156 54.3828 326.609 52.4681 326.718 50.5187C326.759 49.9343 326.767 49.348 326.742 48.7627C326.737 48.6284 326.757 48.429 326.564 48.4237C326.499 48.4326 326.437 48.4547 326.38 48.4885C326.324 48.5223 326.275 48.5672 326.236 48.6204C325.429 49.7918 324.477 50.857 323.404 51.7909C322.933 52.2058 322.438 52.5929 321.921 52.9503C321.584 53.187 321.248 53.4006 320.902 53.5978C318.999 54.7135 316.895 55.4426 314.71 55.7431C313.851 55.8737 312.996 55.994 312.133 56.1175C311.07 56.2778 310.01 56.4479 308.954 56.6277C307.918 56.7903 306.898 57.0421 305.905 57.3803C305.413 57.553 304.935 57.745 304.47 57.9473C302.324 58.8706 300.373 60.1955 298.724 61.8506C296.864 63.7706 295.421 66.0539 294.484 68.5576C294.106 69.5325 293.817 70.5397 293.621 71.5667C293.353 72.9472 293.246 74.3542 293.302 75.7594C293.315 76.2903 293.357 76.8161 293.382 77.3407C293.457 77.8228 293.531 78.305 293.604 78.7876C293.689 79.1544 293.777 79.5189 293.866 79.8843C294.274 81.6192 294.927 83.287 295.806 84.8372C297.033 87.0774 298.729 89.0268 300.778 90.5526C302.827 92.0783 305.18 93.1446 307.678 93.6788C310.227 94.236 312.862 94.2806 315.429 93.8099C317.435 93.4887 319.407 92.9826 321.32 92.2982C326.332 90.5077 330.648 87.1752 333.648 82.7791C333.69 82.7073 333.722 82.6304 333.744 82.5504C333.722 82.5352 333.703 82.5266 333.681 82.5105L333.463 82.6906C332.366 83.5345 331.306 84.4291 330.161 85.2113C326.761 87.5096 322.957 89.1455 318.95 90.0331C317.01 90.4884 315.03 90.7515 313.039 90.8186C310.708 90.8835 308.389 90.4578 306.232 89.569C303.622 88.5021 301.352 86.7425 299.669 84.4801C297.986 82.2176 296.952 79.5383 296.68 76.7315C296.63 76.2008 296.609 75.6677 296.618 75.1348C296.617 71.6844 297.786 68.3356 299.934 65.6355C300.937 64.3577 302.118 63.2307 303.442 62.2891C306.187 60.3706 309.5 59.4362 312.844 59.6376C315.242 59.6956 317.592 60.3242 319.699 61.4713C321.806 62.6184 323.609 64.251 324.959 66.2338C325.055 66.3568 325.144 66.4845 325.231 66.6085C326.193 68.0472 326.911 69.6347 327.356 71.3071C327.735 72.4953 327.91 73.7392 327.873 74.9859C327.823 76.4766 327.273 77.9072 326.313 79.0481C325.826 79.6245 325.221 80.0888 324.538 80.4088C323.855 80.7288 323.111 80.8969 322.357 80.9017C321.625 80.9473 320.892 80.8407 320.203 80.5886C319.515 80.3365 318.886 79.9444 318.356 79.4371C318.258 79.3475 318.165 79.2481 318.058 79.1371C318.026 79.1977 318.006 79.229 317.989 79.2706C317.973 79.3121 317.943 79.36 317.914 79.4066C317.203 80.5181 316.207 81.4188 315.03 82.0151C313.853 82.6115 312.538 82.8816 311.221 82.7975C310.188 82.7478 309.176 82.4896 308.245 82.0385C307.314 81.5874 306.485 80.9527 305.806 80.1726C305.127 79.3925 304.613 78.4832 304.295 77.4992C303.976 76.5153 303.86 75.4771 303.954 74.4472C304.117 72.7382 304.842 71.1315 306.016 69.8783C307.189 68.6252 308.745 67.7961 310.439 67.5209C311.893 67.2981 313.348 67.075 314.807 66.865C315.031 66.8285 315.258 66.8191 315.483 66.8369C316.227 66.8832 316.933 67.1859 317.479 67.6934C318.025 68.201 318.379 68.882 318.48 69.6209C318.643 70.667 318.798 71.717 318.959 72.7576C319.058 73.4125 319.156 74.0615 319.26 74.7083C319.329 75.164 319.449 75.6105 319.619 76.0391C319.783 76.4364 320.041 76.7881 320.371 77.0639C320.701 77.3397 321.093 77.5315 321.513 77.6229C321.933 77.7142 322.369 77.7025 322.784 77.5886C323.198 77.4747 323.579 77.262 323.894 76.9688C324.503 76.2706 324.813 75.3605 324.756 74.4354C324.72 73.3176 324.499 72.2135 324.101 71.1683C323.878 70.5446 323.609 69.9381 323.297 69.3538C321.924 66.8395 319.73 64.8726 317.081 63.7817C314.432 62.6908 311.489 62.5421 308.744 63.3602C306.968 63.8749 305.335 64.7911 303.97 66.0377C302.675 67.2224 301.641 68.6638 300.933 70.27C300.225 71.8763 299.86 73.6123 299.86 75.3675C299.838 77.2569 300.293 79.1213 301.182 80.7886C301.259 80.9263 301.336 81.0637 301.42 81.1996C302.92 83.7359 305.249 85.6771 308.015 86.6953C309.754 87.3975 311.627 87.7028 313.499 87.5892C314.797 87.4981 316.087 87.2824 317.373 87.076C319.477 86.7304 321.53 86.1196 323.481 85.2583C330.019 82.4693 335.325 77.4054 338.416 71.0044C340.572 66.7317 341.54 61.9577 341.217 57.1826C341.098 55.1185 340.747 53.0744 340.17 51.0888C339.668 49.3655 338.941 47.7157 338.008 46.1818" fill="#56338F" />
    <path d="M378.148 89.557L372.766 84.175" stroke="#0357FF" stroke-width="2" stroke-miterlimit="10" stroke-linecap="round" />
    <path d="M372.766 84.175L378.148 78.793" stroke="#0357FF" stroke-width="2" stroke-miterlimit="10" stroke-linecap="round" />
    <path d="M381.985 76.803L386.763 81.581" stroke="#0357FF" stroke-width="2" stroke-miterlimit="10" stroke-linecap="round" />
    <path d="M386.762 81.58L381.984 86.358" stroke="#0357FF" stroke-width="2" stroke-miterlimit="10" stroke-linecap="round" />
    <path d="M406.601 55.401C409.5 55.401 411.851 53.0505 411.851 50.151C411.851 47.2515 409.5 44.901 406.601 44.901C403.701 44.901 401.351 47.2515 401.351 50.151C401.351 53.0505 403.701 55.401 406.601 55.401Z" stroke="#0357FF" stroke-width="1.5" />
    <path d="M374.374 10.5074L377.374 22.9272L364.942 19.1263L374.374 10.5074Z" fill="#0357FF" />
    <path d="M62.36 245.705C65.6737 245.705 68.36 243.019 68.36 239.705C68.36 236.391 65.6737 233.705 62.36 233.705C59.0463 233.705 56.36 236.391 56.36 239.705C56.36 243.019 59.0463 245.705 62.36 245.705Z" fill="#282F89" />
    <path d="M389.354 200.452C436.31 200.637 472.685 170.246 476.971 135.473C480.795 104.441 457.778 80.3582 453.959 76.4812" stroke="#0C1B38" stroke-width="34" stroke-miterlimit="10" stroke-linecap="round" />
    <path d="M440.664 89.1611L450.631 103.592L449.541 105.885L423.454 107.959L408.583 86.4272L409.673 84.1331L426.75 82.7761L440.664 89.1611Z" fill="#4F5D6C" />
    <path d="M459.892 48.69L478.992 8.49008C479.375 7.682 479.422 6.75485 479.122 5.91244C478.822 5.07004 478.199 4.38107 477.392 3.99692L469.664 0.326994C469.264 0.136156 468.829 0.0261204 468.386 0.00326372C467.943 -0.019593 467.5 0.0450809 467.082 0.193693C466.664 0.342306 466.28 0.572071 465.951 0.869475C465.621 1.16688 465.354 1.52628 465.164 1.92709L423.117 90.0269L436.944 96.596L445.25 79.502L459.892 48.69Z" fill="#4F5D6C" />
    <path d="M431.744 107.302C414.89 140.846 388.344 196.32 373.936 228.158C359.366 260.358 346.024 291.692 333.909 322.158C333.729 322.606 333.432 322.997 333.049 323.291C332.666 323.585 332.212 323.771 331.733 323.83C331.254 323.888 330.768 323.818 330.326 323.625C329.883 323.433 329.501 323.125 329.218 322.734L324.982 316.892C324.716 316.527 324.547 316.101 324.489 315.654C324.431 315.206 324.487 314.751 324.651 314.331C336.051 285.057 348.327 255.106 361.479 224.477C375.533 191.84 401.854 135.077 418.304 100.502" fill="#4F5D6C" />
    <path d="M388.703 135.246C396.056 127.302 397.863 120.489 400.435 116.619C405.168 109.502 418.509 103.9 456.629 111.049C456.054 117.183 455.479 123.319 454.903 129.457C426.525 119.844 413.954 123.231 407.837 128.757C405.054 131.272 402.288 135.084 396.108 139.126C390.048 142.94 383.06 145.025 375.901 145.157C380.676 142.567 384.999 139.22 388.703 135.246V135.246Z" fill="#8174f2" />
    <path d="M456.625 139.812V156.495C437.933 146.466 425.141 146.605 416.811 148.715C411.061 150.173 405.303 152.563 396.327 152.528C388.127 152.496 381.498 148.955 377.287 146.084C384.641 146.283 391.95 144.885 398.711 141.984C406.205 138.699 409.841 135.725 413.672 133.703C420.894 129.889 433.444 128.266 456.625 139.812Z" fill="#8174f2" />
    <path d="M427.653 65.5338L433.787 52.371C434.717 50.379 436.4 48.8376 438.465 48.0858C440.531 47.334 442.811 47.4333 444.803 48.3618L455.426 53.3125C458.169 54.5908 460.292 56.9062 461.328 59.7495C462.364 62.5928 462.229 65.7312 460.952 68.4747L457.435 76.0214C456.161 78.7535 453.855 80.8678 451.023 81.8994C448.191 82.9309 445.065 82.7952 442.333 81.5219L431.666 76.551C429.673 75.6221 428.13 73.9396 427.378 71.8735C426.625 69.8073 426.724 67.5269 427.653 65.5338V65.5338Z" fill="black" />
    <path d="M288.943 383.505L288.02 418.147" stroke="black" stroke-width="22" stroke-miterlimit="10" />
    <path d="M407.405 264.754L408.978 223.216C409.219 216.851 408.057 210.511 405.574 204.645C403.091 198.779 399.349 193.531 394.612 189.272C389.874 185.014 384.258 181.85 378.162 180.004C372.065 178.159 365.638 177.676 359.334 178.592V178.592C353.193 179.484 347.315 181.682 342.094 185.037C336.874 188.392 332.434 192.827 329.072 198.043C325.71 203.259 323.505 209.135 322.605 215.275C321.705 221.414 322.131 227.676 323.855 233.637L335.402 273.569C337.799 281.857 343.036 289.037 350.196 293.851C357.356 298.665 365.982 300.805 374.562 299.897C383.347 298.967 391.503 294.902 397.535 288.448C403.567 281.993 407.071 273.582 407.405 264.754V264.754Z" fill="black" />
    <path d="M160.084 381.831L96.63 423.031" stroke="#0C1121" stroke-width="22" stroke-linecap="round" stroke-linejoin="round" />
    <path d="M373.989 423.948C373.907 425.34 374.113 426.734 374.594 428.044C375.075 429.353 375.82 430.549 376.783 431.558C377.746 432.566 378.907 433.366 380.193 433.906C381.478 434.447 382.861 434.717 384.256 434.699L388.114 434.65L422.861 434.213C424.434 434.193 425.941 433.582 427.085 432.502C428.228 431.423 428.925 429.953 429.036 428.384C429.147 426.815 428.664 425.262 427.684 424.032C426.704 422.802 425.297 421.986 423.743 421.744L405.258 418.517L386.172 414.594C384.745 414.301 383.271 414.318 381.851 414.644C380.431 414.971 379.098 415.599 377.942 416.486C376.786 417.374 375.835 418.499 375.153 419.787C374.47 421.074 374.073 422.494 373.988 423.948H373.989Z" fill="#0C1121" />
    <path d="M106.067 423.948C106.149 425.34 105.943 426.734 105.462 428.044C104.981 429.353 104.236 430.549 103.273 431.558C102.309 432.566 101.149 433.366 99.8628 433.906C98.577 434.447 97.1937 434.717 95.799 434.699L91.9411 434.65L57.194 434.211C55.6214 434.19 54.1139 433.58 52.9702 432.5C51.8266 431.421 51.1303 429.951 51.0193 428.382C50.9083 426.813 51.3908 425.26 52.3711 424.03C53.3514 422.8 54.758 421.984 56.312 421.742L74.797 418.515L93.883 414.592C95.3102 414.299 96.7839 414.316 98.2039 414.642C99.6239 414.969 100.957 415.597 102.113 416.485C103.268 417.372 104.22 418.497 104.902 419.785C105.584 421.072 105.982 422.491 106.067 423.946V423.948Z" fill="#0C1121" />
    <path d="M457.473 375.203C449.14 381.274 440.542 387.351 431.681 393.435C415.447 404.564 399.525 414.886 383.914 424.399" stroke="#0C1121" stroke-width="22" stroke-linecap="round" stroke-linejoin="round" />
    <path d="M385.065 307.422C388.419 307.249 392.291 307.134 396.608 307.168C403.891 307.224 422.53 307.468 440.924 312.676C458.589 317.676 477.666 323.082 481.584 335.226C486.262 349.726 468.854 372.301 438.184 388.939" stroke="#14254C" stroke-width="44" stroke-linecap="round" stroke-linejoin="round" />
    <path d="M350.51 301.021C274.41 319.152 202.032 350.347 136.596 393.221" stroke="#14254C" stroke-width="44" stroke-linecap="round" stroke-linejoin="round" />
    <path d="M447.885 287.036L369.711 262.626C356.944 267.104 343.869 271.518 330.487 275.867C314.5 281.055 298.805 285.906 283.402 290.421C291.504 305.354 303.559 317.769 318.247 326.307C332.935 334.845 349.689 339.176 366.674 338.826C383.66 338.477 400.222 333.46 414.546 324.325C428.87 315.19 440.404 302.289 447.885 287.036Z" fill="black" />
    <path d="M339.709 304.216L412.505 292.648L408.638 268.313L335.842 279.881L339.709 304.216Z" fill="#8174f2" />
    <path d="M284.294 403.315L298.815 403.109C301.013 403.079 303.133 403.923 304.709 405.455C306.285 406.988 307.187 409.083 307.219 411.281L307.385 423C307.428 426.026 306.268 428.945 304.159 431.116C302.05 433.286 299.165 434.53 296.139 434.574L287.814 434.692C284.8 434.735 281.893 433.579 279.732 431.478C277.57 429.377 276.332 426.504 276.289 423.49L276.122 411.723C276.091 409.524 276.934 407.403 278.467 405.827C279.999 404.25 282.096 403.346 284.294 403.315V403.315Z" fill="black" />
    <path d="M334.094 223.09C319.021 241.311 307.244 262.024 299.294 284.296C288.298 315.467 284.99 348.832 289.652 381.555" stroke="#0C1B38" stroke-width="34" stroke-miterlimit="10" stroke-linecap="round" />
    <path d="M353.691 123.838L349.891 124.062C346.189 124.279 342.57 125.253 339.26 126.925C335.949 128.596 333.017 130.929 330.644 133.779C328.271 136.629 326.508 139.936 325.465 143.494C324.421 147.053 324.119 150.788 324.577 154.468L328.183 183.463C329.033 190.294 332.449 196.545 337.739 200.949C343.029 205.353 349.797 207.579 356.668 207.176V207.176C363.539 206.774 370 203.772 374.74 198.781C379.479 193.789 382.142 187.181 382.188 180.298L382.388 151.08C382.413 147.371 381.676 143.697 380.224 140.284C378.772 136.871 376.634 133.793 373.944 131.239C371.254 128.686 368.069 126.711 364.585 125.438C361.102 124.165 357.394 123.621 353.691 123.838V123.838Z" fill="#0C1B38" />
    <path d="M324.999 162.717L382.925 159.323L382.081 144.913L324.155 148.307L324.999 162.717Z" fill="#8174f2" />
    <path d="M336.57 169.767L372.256 167.676C376.343 167.436 379.463 163.929 379.223 159.841C378.984 155.753 375.476 152.634 371.388 152.873L335.703 154.964C331.615 155.203 328.495 158.711 328.735 162.799C328.974 166.887 332.482 170.006 336.57 169.767Z" fill="#E9AC6A" />
    <path d="M349.895 168.986L356.32 168.61L355.596 156.258L349.895 168.986Z" fill="#E26841" />
    <path d="M335.873 164.435L339.513 164.223C340.652 164.157 341.522 163.18 341.456 162.041C341.39 160.902 340.413 160.032 339.273 160.098L335.634 160.31C334.494 160.376 333.624 161.353 333.691 162.492C333.757 163.631 334.734 164.501 335.873 164.435Z" fill="white" />
    <path d="M367.527 162.582L371.168 162.369C372.307 162.302 373.177 161.325 373.11 160.185C373.043 159.046 372.065 158.176 370.926 158.243L367.285 158.457C366.145 158.523 365.276 159.501 365.342 160.64C365.409 161.78 366.387 162.649 367.527 162.582Z" fill="white" />
    <path d="M335.779 164.48C336.935 164.48 337.873 163.543 337.873 162.386C337.873 161.23 336.935 160.292 335.779 160.292C334.622 160.292 333.685 161.23 333.685 162.386C333.685 163.543 334.622 164.48 335.779 164.48Z" fill="black" />
    <path d="M367.434 162.626C368.59 162.626 369.528 161.689 369.528 160.532C369.528 159.376 368.59 158.438 367.434 158.438C366.277 158.438 365.34 159.376 365.34 160.532C365.34 161.689 366.277 162.626 367.434 162.626Z" fill="black" />
    <path d="M17.813 434.854H138.813" stroke="#0357FF" />
    <path d="M347.813 434.854H468.813" stroke="#0357FF" />
  </g>
  <defs>
    <clipPath id="clip0_7_272">
      <rect width="514.439" height="439.524" fill="white" />
    </clipPath>
  </defs>
</svg>